<!DOCTYPE svg PUBLIC "-//W3C//DTD SVG 1.1//EN" "http://www.w3.org/Graphics/SVG/1.1/DTD/svg11.dtd">
<!-- Uploaded to: SVG Repo, www.svgrepo.com, Transformed by: SVG Repo Mixer Tools -->
<svg width="800px" height="800px" viewBox="0 0 24 24" fill="none" xmlns="http://www.w3.org/2000/svg" stroke="#ea1f1f">
<g id="SVGRepo_bgCarrier" stroke-width="0"/>
<g id="SVGRepo_tracerCarrier" stroke-linecap="round" stroke-linejoin="round"/>
<g id="SVGRepo_iconCarrier"> <path d="M10 18V21M14 20V21M21 12V13C21 15.2091 19.2091 17 17 17V21H7V17C4.79086 17 3 15.2091 3 13V12C3 7.02944 7.02944 3 12 3C16.9706 3 21 7.02944 21 12ZM10 10.5C10 11.6046 9.10457 12.5 8 12.5C6.89543 12.5 6 11.6046 6 10.5C6 9.39543 6.89543 8.5 8 8.5C9.10457 8.5 10 9.39543 10 10.5ZM18 10.5C18 11.6046 17.1046 12.5 16 12.5C14.8954 12.5 14 11.6046 14 10.5C14 9.39543 14.8954 8.5 16 8.5C17.1046 8.5 18 9.39543 18 10.5Z" stroke="#000000" stroke-width="2" stroke-linecap="round" stroke-linejoin="round"/> </g>
</svg>