<?xml version="1.0" encoding="utf-8"?>
<!-- Generator: Adobe Illustrator 25.2.1, SVG Export Plug-In . SVG Version: 6.00 Build 0)  -->
<svg version="1.1" id="Layer_1" xmlns="http://www.w3.org/2000/svg" xmlns:xlink="http://www.w3.org/1999/xlink" x="0px" y="0px"
	 viewBox="0 0 50 50" style="enable-background:new 0 0 50 50;" xml:space="preserve">
<style type="text/css">
	.st0{fill:#5F2EEA;}
</style>
<path class="st0" d="M38.6,47c-0.6,0-1-0.5-1-1v-1.6h-25V46c0,0.6-0.5,1-1,1s-1-0.5-1-1v-1.6H6.2c-2.1,0-3.7-1.7-3.7-3.7V13.5
	c0-2.1,1.7-3.7,3.7-3.7h16.4l-6.3-6.3C16.1,3.3,16,3,16,2.7c0-0.3,0.1-0.5,0.3-0.7c0.2-0.2,0.5-0.3,0.7-0.3s0.5,0.1,0.7,0.3l7.3,7.3
	L32.4,2c0.2-0.2,0.5-0.3,0.7-0.3s0.5,0.1,0.7,0.3s0.3,0.5,0.3,0.7c0,0.3-0.1,0.5-0.3,0.7l-6.3,6.3H44c2.1,0,3.7,1.7,3.7,3.7v27.1
	c0,2.1-1.7,3.7-3.7,3.7h-4.3V46C39.7,46.5,39.2,47,38.6,47z M6.2,11.9c-0.9,0-1.6,0.7-1.6,1.6v27.1c0,0.9,0.7,1.6,1.6,1.6H44
	c0.9,0,1.6-0.7,1.6-1.6V13.5c0-0.9-0.7-1.6-1.6-1.6H6.2z"/>
<path class="st0" d="M8.9,38.9c-0.6,0-1-0.5-1-1V16.2c0-0.6,0.5-1,1-1h27.1c0.6,0,1,0.5,1,1v21.7c0,0.6-0.5,1-1,1H8.9z M9.9,36.8h25
	V17.2h-25V36.8z"/>
<circle class="st0" cx="41.3" cy="18.9" r="1"/>
<circle class="st0" cx="41.3" cy="24.3" r="1"/>
<path class="st0" d="M41.3,36.2c-0.6,0-1-0.5-1-1v-5.6c0-0.6,0.5-1,1-1s1,0.5,1,1v5.6C42.4,35.8,41.9,36.2,41.3,36.2z"/>
</svg>
