<svg id="Group_510" data-name="Group 510" xmlns="http://www.w3.org/2000/svg" width="13.841" height="14.155" viewBox="0 0 13.841 14.155">
  <path id="Path_5408" data-name="Path 5408" d="M118.8,258.563a.321.321,0,0,0-.321-.321h-1.121a.321.321,0,0,0-.321.321v1.121a.321.321,0,0,0,.321.321h1.121a.321.321,0,0,0,.321-.321v-1.121Z" transform="translate(-113.798 -250.754)" fill="#8094ae"/>
  <path id="Path_5409" data-name="Path 5409" d="M215.433,258.563a.321.321,0,0,0-.321-.321h-1.121a.321.321,0,0,0-.321.321v1.121a.321.321,0,0,0,.321.321h1.121a.321.321,0,0,0,.321-.321Z" transform="translate(-207.631 -250.754)" fill="#8094ae"/>
  <path id="Path_5410" data-name="Path 5410" d="M312.062,258.563a.321.321,0,0,0-.321-.321h-1.121a.321.321,0,0,0-.321.321v1.121a.321.321,0,0,0,.321.321h1.121a.321.321,0,0,0,.321-.321Z" transform="translate(-301.457 -250.754)" fill="#8094ae"/>
  <path id="Path_5411" data-name="Path 5411" d="M118.8,355.2a.321.321,0,0,0-.321-.321h-1.121a.321.321,0,0,0-.321.321v1.121a.321.321,0,0,0,.321.321h1.121a.321.321,0,0,0,.321-.321V355.2Z" transform="translate(-113.798 -344.585)" fill="#8094ae"/>
  <path id="Path_5412" data-name="Path 5412" d="M215.433,355.2a.321.321,0,0,0-.321-.321h-1.121a.321.321,0,0,0-.321.321v1.121a.321.321,0,0,0,.321.321h1.121a.321.321,0,0,0,.321-.321Z" transform="translate(-207.631 -344.585)" fill="#8094ae"/>
  <path id="Path_5413" data-name="Path 5413" d="M312.062,355.2a.321.321,0,0,0-.321-.321h-1.121a.321.321,0,0,0-.321.321v1.121a.321.321,0,0,0,.321.321h1.121a.321.321,0,0,0,.321-.321V355.2Z" transform="translate(-301.457 -344.585)" fill="#8094ae"/>
  <path id="Path_5414" data-name="Path 5414" d="M18.02,54.148V55.86a1.4,1.4,0,0,1-1.4,1.4h-.884a1.406,1.406,0,0,1-1.41-1.4V54.142H10.339V55.86a1.406,1.406,0,0,1-1.41,1.4H8.045a1.4,1.4,0,0,1-1.4-1.4V54.148a1.275,1.275,0,0,0-1.232,1.268V65.451A1.275,1.275,0,0,0,6.68,66.727h11.3a1.277,1.277,0,0,0,1.269-1.276V55.416A1.275,1.275,0,0,0,18.02,54.148Zm-.411,10.678a.549.549,0,0,1-.549.549H7.578a.549.549,0,0,1-.549-.549V59.642a.549.549,0,0,1,.549-.549h9.483a.549.549,0,0,1,.549.549v5.183Z" transform="translate(-5.411 -52.572)" fill="#8094ae"/>
  <path id="Path_5415" data-name="Path 5415" d="M80.031,3.768h.875a.48.48,0,0,0,.481-.48V.481A.481.481,0,0,0,80.905,0h-.875a.481.481,0,0,0-.481.481V3.288A.48.48,0,0,0,80.031,3.768Z" transform="translate(-77.4)" fill="#8094ae"/>
  <path id="Path_5416" data-name="Path 5416" d="M344.939,3.768h.875a.48.48,0,0,0,.481-.48V.481A.481.481,0,0,0,345.813,0h-.875a.481.481,0,0,0-.481.481V3.288A.48.48,0,0,0,344.939,3.768Z" transform="translate(-334.627)" fill="#8094ae"/>
</svg>
