<?xml version="1.0" encoding="utf-8"?>
<!-- Generator: Adobe Illustrator 25.2.1, SVG Export Plug-In . SVG Version: 6.00 Build 0)  -->
<svg version="1.1" id="Layer_1" xmlns="http://www.w3.org/2000/svg" xmlns:xlink="http://www.w3.org/1999/xlink" x="0px" y="0px"
	 viewBox="0 0 50 50" style="enable-background:new 0 0 50 50;" xml:space="preserve">
<style type="text/css">
	.st0{fill:#5F2EEA;}
</style>
<g id="Group_259" transform="translate(0 -0.038)">
	<g id="Group_258" transform="translate(0 0.038)">
		<path id="Path_5298" class="st0" d="M48.2,37.7l-0.8-2.1c-0.2-0.5-0.7-0.7-1.2-0.5c-0.5,0.2-0.7,0.7-0.5,1.2l0.8,2.1
			c1.2,3.3-0.4,6.9-3.7,8.1c-2.8,1-6,0-7.6-2.6l-0.9-1.5c1.1-1.9,0.5-4.2-1.4-5.3c-1.9-1.1-4.2-0.5-5.3,1.4c-0.2,0.3-0.3,0.7-0.4,1
			h-4.2c-0.5-2.1-2.6-3.4-4.7-2.8c-2.1,0.5-3.4,2.6-2.8,4.7c0.1,0.4,0.2,0.7,0.4,1l-0.9,1.5c-1.8,3-5.7,3.9-8.7,2.1
			c-0.7-0.5-1.4-1.1-1.9-1.8c-1.2-1.7-1.5-3.9-0.7-5.8L8,26.4c1.1-3.1,4.1-5.1,7.3-5.1h19.3c3.3,0,6.2,2,7.3,5.1l0.8,2.1
			c0.2,0.5,0.7,0.7,1.2,0.5c0.5-0.2,0.7-0.7,0.5-1.2l-0.8-2.1c-1.4-3.8-5-6.3-9.1-6.3h-2.2c-0.5-2.6-2.7-4.4-5.3-4.4h-1.3v-0.7
			c0-2.7-2.2-4.9-4.9-4.9h-9.7C9.6,9.4,8.2,8,8.2,6.3s1.4-3.1,3.1-3.1H25c0.5,0,0.9-0.4,0.9-0.9S25.5,1.3,25,1.3H11.3
			c-2.7,0-4.9,2.2-4.9,4.9s2.2,4.9,4.9,4.9H21c1.7,0,3.1,1.4,3.1,3.1V15h-1.3c-2.6,0-4.8,1.9-5.3,4.4h-2.2c-4,0-7.6,2.5-9.1,6.3
			L1.8,37.7c-1.6,4.2,0.6,8.9,4.8,10.5c0.9,0.3,1.9,0.5,2.8,0.5c2.8,0,5.5-1.5,6.9-3.9l0.7-1.1c1.8,1.1,4.2,0.5,5.3-1.3
			c0.2-0.3,0.4-0.7,0.5-1.1h4.2c0.5,2.1,2.6,3.4,4.7,2.8c0.4-0.1,0.8-0.2,1.1-0.5l0.7,1.1c2.4,3.8,7.4,5,11.2,2.7
			C48.1,45.4,49.5,41.3,48.2,37.7L48.2,37.7z M22.8,16.9h4.4c1.6,0,3,1.1,3.4,2.6H19.4C19.8,17.9,21.2,16.9,22.8,16.9z M19.1,42.4
			c-1.1,0-2-0.9-2-2c0-1.1,0.9-2,2-2c1.1,0,2,0.9,2,2c0,0,0,0,0,0C21.2,41.5,20.3,42.4,19.1,42.4L19.1,42.4L19.1,42.4z M28.8,40.3
			c0-1.1,0.9-2,2-2c1.1,0,2,0.9,2,2c0,1.1-0.9,2-2,2C29.8,42.4,28.8,41.5,28.8,40.3C28.8,40.4,28.8,40.4,28.8,40.3L28.8,40.3z"/>
		<path id="Path_5299" class="st0" d="M33.6,29.7c0,1.6,1.3,3,3,3s3-1.3,3-3c0-1.6-1.3-3-3-3C34.9,26.7,33.6,28.1,33.6,29.7z
			 M37.7,29.7c0,0.6-0.5,1.1-1.1,1.1c-0.6,0-1.1-0.5-1.1-1.1c0-0.6,0.5-1.1,1.1-1.1C37.2,28.6,37.7,29.1,37.7,29.7L37.7,29.7z"/>
		<path id="Path_5300" class="st0" d="M25.4,29.7c0,1.6,1.3,3,3,3c1.6,0,3-1.3,3-3c0-1.6-1.3-3-3-3C26.8,26.7,25.5,28.1,25.4,29.7z
			 M29.5,29.7c0,0.6-0.5,1.1-1.1,1.1s-1.1-0.5-1.1-1.1c0-0.6,0.5-1.1,1.1-1.1C29,28.6,29.5,29.1,29.5,29.7L29.5,29.7z"/>
		<path id="Path_5301" class="st0" d="M15.9,24.3c-1.5,0-2.7,1.1-2.8,2.6c-1.5,0.1-2.7,1.4-2.6,2.9c0.1,1.4,1.2,2.5,2.6,2.6
			c0.1,1.5,1.4,2.7,2.9,2.6c1.4-0.1,2.5-1.2,2.6-2.6c1.5-0.1,2.7-1.4,2.6-2.9c-0.1-1.4-1.2-2.5-2.6-2.6
			C18.5,25.5,17.3,24.3,15.9,24.3z M19.4,29.7c0,0.5-0.4,0.9-0.9,0.9h-0.7c-0.5,0-0.9,0.4-0.9,0.9v0.7c0,0.5-0.4,0.9-0.9,0.9
			c-0.5,0-0.9-0.4-0.9-0.9v-0.7c0-0.5-0.4-0.9-0.9-0.9h-0.7c-0.5,0-0.9-0.4-0.9-0.9c0-0.5,0.4-0.9,0.9-0.9c0,0,0,0,0,0H14
			c0.5,0,0.9-0.4,0.9-0.9v-0.7c0-0.5,0.4-0.9,0.9-0.9c0.5,0,0.9,0.4,0.9,0.9l0,0v0.7c0,0.5,0.4,0.9,0.9,0.9h0.7
			C19,28.8,19.4,29.2,19.4,29.7z"/>
		<path id="Path_5302" class="st0" d="M44.2,32c0,0.5,0.4,0.9,0.9,0.9c0.5,0,0.9-0.4,0.9-0.9c0-0.5-0.4-0.9-0.9-0.9
			c-0.2,0-0.5,0.1-0.7,0.3C44.3,31.6,44.2,31.8,44.2,32z"/>
	</g>
</g>
</svg>
