<?xml version="1.0" encoding="utf-8"?>
<!-- Generator: Adobe Illustrator 25.2.1, SVG Export Plug-In . SVG Version: 6.00 Build 0)  -->
<svg version="1.1" id="Layer_1" xmlns="http://www.w3.org/2000/svg" xmlns:xlink="http://www.w3.org/1999/xlink" x="0px" y="0px"
	 viewBox="0 0 50 50" style="enable-background:new 0 0 50 50;" xml:space="preserve">
<style type="text/css">
	.st0{fill:#5F2EEA;}
</style>
<g id="Group_263" transform="translate(-55.1)">
	<g id="Group_262" transform="translate(55.1)">
		<g id="Group_261" transform="translate(0)">
			<path id="Path_5315" class="st0" d="M42.5,43.8V6.1c0-2.2-1.8-4.1-4.1-4.1h-27c-2.3,0-4.1,1.8-4.1,4.1v37.7
				c0,2.3,1.8,4.1,4.1,4.1h27c1.1,0,2.1-0.4,2.9-1.2C42.2,46,42.6,44.9,42.5,43.8z M40,45.3c-0.4,0.4-0.9,0.6-1.5,0.6h-27
				c-1.1,0-2-0.9-2-2c0,0,0,0,0,0V6.1c0-1.1,0.9-2,2-2l0,0h27.1c1.1,0,2,0.9,1.9,2v37.8C40.6,44.4,40.4,44.9,40,45.3z"/>
			<path id="Path_5316" class="st0" d="M38,7.5c0,0,0-0.1,0-0.1c0-0.5-0.5-0.9-1-0.9c0,0,0,0,0,0H13.1c-0.6,0-1,0.5-1,1l0,0V38
				c0,0.6,0.5,1,1,1l0,0h23.9c0,0,0.1,0,0.1,0c0.5,0,0.9-0.5,0.9-1c0,0,0,0,0,0C38,38,38,7.5,38,7.5z M35.9,37H14.1V8.5h21.9
				L35.9,37L35.9,37z"/>
			<path id="Path_5317" class="st0" d="M27.8,41.1h-5.6c-0.6,0-1,0.5-1,1c0,0.6,0.5,1,1,1h5.6c0.6,0,1-0.5,1-1
				C28.8,41.6,28.4,41.2,27.8,41.1z"/>
			<path id="Path_5318" class="st0" d="M18.7,16.8h6.5c0.6,0,1-0.5,1-1c0-0.6-0.5-1-1-1l0,0h-6.5c-0.6,0-1,0.5-1,1
				C17.7,16.3,18.1,16.8,18.7,16.8z"/>
			<path id="Path_5319" class="st0" d="M18.7,23.4h12.6c0.6,0,1-0.5,1-1c0-0.6-0.5-1-1-1H18.7c-0.6,0-1,0.5-1,1
				C17.7,23,18.1,23.4,18.7,23.4z"/>
			<path id="Path_5320" class="st0" d="M18.7,30h12.6c0.6,0,1-0.5,1-1c0-0.6-0.5-1-1-1c0,0,0,0,0,0H18.7c-0.6,0-1,0.5-1,1
				C17.7,29.6,18.1,30,18.7,30C18.7,30,18.7,30,18.7,30z"/>
		</g>
	</g>
</g>
</svg>
