<svg xmlns="http://www.w3.org/2000/svg" width="13.867" height="13" viewBox="0 0 13.867 13">
  <g id="dislike" transform="translate(0)">
    <path id="Path_5362" data-name="Path 5362" d="M20.456,1H19.011A1.012,1.012,0,0,0,18,2.011V8.656a1.012,1.012,0,0,0,1.011,1.011h1.444a1.012,1.012,0,0,0,1.011-1.011V2.011A1.012,1.012,0,0,0,20.456,1Z" transform="translate(-7.6 -0.856)" fill="#8094ae"/>
    <path id="Path_5363" data-name="Path 5363" d="M2.958.75A2.307,2.307,0,0,0,.681,2.668L.034,6.424a2.31,2.31,0,0,0,2.276,2.7H5.038A5.579,5.579,0,0,0,4.6,11.439,2.122,2.122,0,0,0,6.482,13.75c.578,0,.867-.289.867-1.733,0-1.373,1.329-2.478,2.185-3.047V1.813A13.467,13.467,0,0,0,3.882.75Z" transform="translate(0 -0.75)" fill="#8094ae"/>
  </g>
</svg>
