<?xml version="1.0" encoding="utf-8"?>
<!-- Generator: Adobe Illustrator 25.2.1, SVG Export Plug-In . SVG Version: 6.00 Build 0)  -->
<svg version="1.1" id="Layer_1" xmlns="http://www.w3.org/2000/svg" xmlns:xlink="http://www.w3.org/1999/xlink" x="0px" y="0px"
	 viewBox="0 0 50 50" style="enable-background:new 0 0 50 50;" xml:space="preserve">
<style type="text/css">
	.st0{fill:#FFFFFF;}
</style>
<path id="Path_5395" class="st0" d="M43.7,50H6.3c-0.9,0-1.7-0.7-1.7-1.7c0,0,0,0,0,0v-5.8c0-0.9,0.7-1.7,1.7-1.7l0,0h37.4
	c0.9,0,1.7,0.7,1.7,1.7c0,0,0,0,0,0v5.8C45.4,49.2,44.6,50,43.7,50C43.7,50,43.7,50,43.7,50z M37.3,18.5c-0.6-0.7-1.7-0.8-2.4-0.2
	L29.6,23V2.3c0-1.3-1-2.3-2.3-2.3h-4.6c-1.3,0-2.3,1-2.3,2.3V23l-5.4-4.7c-0.7-0.6-1.7-0.5-2.4,0.2l-3.8,4.4
	c-0.6,0.7-0.5,1.7,0.1,2.4c0,0,0,0,0,0l14.5,12.7c0.9,0.8,2.2,0.8,3,0L41,25.2c0.7-0.6,0.8-1.7,0.2-2.4c0,0,0,0,0,0L37.3,18.5z"/>
</svg>
