<svg xmlns="http://www.w3.org/2000/svg" width="11.328" height="14.155" viewBox="0 0 11.328 14.155">
  <g id="database" transform="translate(-2.922)">
    <path id="Path_5421" data-name="Path 5421" d="M8.584,14c-2.658,0-4.885-.781-5.493-1.833a1.152,1.152,0,0,0-.169.578v1.723c0,1.331,2.536,2.411,5.662,2.411s5.665-1.08,5.665-2.411V12.742a1.145,1.145,0,0,0-.171-.578C13.47,13.216,11.245,14,8.584,14Z" transform="translate(0 -6.28)" fill="#8094ae"/>
    <path id="Path_5422" data-name="Path 5422" d="M8.584,21.354c-2.658,0-4.885-.782-5.493-1.832a1.145,1.145,0,0,0-.169.576v1.724c0,1.331,2.536,2.411,5.662,2.411s5.665-1.079,5.665-2.411V20.1a1.135,1.135,0,0,0-.171-.576C13.47,20.573,11.245,21.354,8.584,21.354Z" transform="translate(0 -10.078)" fill="#8094ae"/>
    <path id="Path_5423" data-name="Path 5423" d="M14.095,5.042c-.111.975-2.531,1.756-5.51,1.756s-5.4-.78-5.509-1.755a1.144,1.144,0,0,0-.154.552V7.317c0,1.331,2.536,2.411,5.662,2.411S14.25,8.649,14.25,7.317V5.594A1.149,1.149,0,0,0,14.095,5.042Z" transform="translate(0 -2.603)" fill="#8094ae"/>
    <path id="Path_5424" data-name="Path 5424" d="M8.738,3.648c3.049,0,5.52-.816,5.52-1.824S11.787,0,8.738,0,3.219.817,3.219,1.824,5.691,3.648,8.738,3.648Z" transform="translate(-0.153)" fill="#8094ae"/>
  </g>
</svg>
