<!DOCTYPE svg PUBLIC "-//W3C//DTD SVG 1.1//EN" "http://www.w3.org/Graphics/SVG/1.1/DTD/svg11.dtd">
<!-- Uploaded to: SVG Repo, www.svgrepo.com, Transformed by: SVG Repo Mixer Tools -->
<svg fill="#ea1f1f" height="800px" width="800px" version="1.1" id="Layer_1" xmlns="http://www.w3.org/2000/svg" xmlns:xlink="http://www.w3.org/1999/xlink" viewBox="0 0 512 512" xml:space="preserve">
<g id="SVGRepo_bgCarrier" stroke-width="0"/>
<g id="SVGRepo_tracerCarrier" stroke-linecap="round" stroke-linejoin="round"/>
<g id="SVGRepo_iconCarrier"> <g> <g> <g> <path d="M128,352c-11.776,0-21.333,9.557-21.333,21.333c0,11.776,9.557,21.333,21.333,21.333s21.333-9.557,21.333-21.333 C149.333,361.557,139.776,352,128,352z"/> <path d="M149.333,288C137.557,288,128,297.557,128,309.333s9.557,21.333,21.333,21.333s21.333-9.557,21.333-21.333 S161.109,288,149.333,288z"/> <path d="M490.667,53.333H448C448,41.551,438.449,32,426.667,32H384c-11.782,0-21.333,9.551-21.333,21.333H320H213.333h-64 C149.333,41.551,139.782,32,128,32H85.333C73.551,32,64,41.551,64,53.333H21.333C9.551,53.333,0,62.885,0,74.667v45.611 c0,4.616,1.497,9.107,4.267,12.8l9.024,12.032c3.355,4.471,3.355,10.59,0.004,15.057l-9.028,12.037 C1.497,175.895,0,180.387,0,185.003V224c0,11.782,9.551,21.333,21.333,21.333H64c7.109,0,11.734,7.491,8.549,13.854L7.326,374 c-12.391,27.643-8.307,57.783,10.205,79.858C31.793,470.866,53.654,480,76.629,480h103.808c46.59,0,71.416-54.969,40.596-89.909 l-2.438-2.752l20.865-56.672h44.358c43.292,0,78.848-39.327,78.848-83.264v-2.069h106.667c11.782,0,21.333-9.551,21.333-21.333 v-42.667c11.782,0,21.333-9.551,21.333-21.333V74.667C512,62.885,502.449,53.333,490.667,53.333z M298.667,96v21.333h-64V96 H298.667z M180.437,437.333H76.629c-10.933,0-20.691-4.077-26.405-10.891c-7.987-9.523-9.717-22.293-4.851-33.249l64.804-113.924 c5.656-11.28,7.007-23.075,4.985-33.936H225.41l-20.853,56.628c-0.022,0.059-0.038,0.118-0.059,0.177l-28.102,76.326 c-0.589,1.599-0.984,3.264-1.177,4.957c-1.086,9.539,1.404,19.151,6.966,26.976l1.419,1.786l5.461,6.165 C195.55,425.699,190.295,437.333,180.437,437.333z M320,247.403C320,268.681,302.534,288,283.819,288H255.17l15.709-42.667H320 V247.403z M469.333,138.667C457.551,138.667,448,148.218,448,160v42.667H341.333H256H64H42.667v-10.553l4.757-6.343 c14.735-19.636,14.735-46.626-0.004-66.266l-4.754-6.338V96H192v42.667c0,11.782,9.551,21.333,21.333,21.333H320 c11.782,0,21.333-9.551,21.333-21.333V96h128V138.667z"/> </g> </g> </g> </g>
</svg>