<?xml version="1.0" encoding="utf-8"?>
<!-- Generator: Adobe Illustrator 25.3.1, SVG Export Plug-In . SVG Version: 6.00 Build 0)  -->
<svg version="1.1" id="Layer_1" xmlns="http://www.w3.org/2000/svg" xmlns:xlink="http://www.w3.org/1999/xlink" x="0px" y="0px"
	 viewBox="0 0 50 50" style="enable-background:new 0 0 50 50;" xml:space="preserve">
<style type="text/css">
	.st0{fill:#5F2EEA;}
</style>
<g id="Group_807_1_">
	<g id="Ellipse_27_1_">
		<path id="Path_5700" class="st0" d="M25,47.4c-12.4,0-22.4-10-22.4-22.4S12.6,2.6,25,2.6s22.4,10,22.4,22.4
			C47.4,37.4,37.4,47.4,25,47.4z M25,4.5C13.7,4.5,4.5,13.7,4.5,25S13.7,45.5,25,45.5S45.5,36.3,45.5,25C45.5,13.7,36.3,4.5,25,4.5z
			"/>
	</g>
	<g id="Path_5698_1_">
		<path id="Path_5701" class="st0" d="M8.7,21.8c-0.1,0-0.2,0-0.2,0c-0.5-0.1-0.8-0.6-0.7-1.2c0,0,0,0,0,0c0.7-2.8,2.1-5.4,4.1-7.6
			c0.4-0.4,1-0.4,1.3-0.1c0.4,0.4,0.4,1,0.1,1.3c-1.8,1.9-3,4.2-3.6,6.8C9.5,21.5,9.1,21.8,8.7,21.8z"/>
	</g>
	<g id="Path_5699_1_">
		<path id="Path_5702" class="st0" d="M15.1,12.4c-0.5,0-1-0.4-1-1c0-0.3,0.1-0.6,0.4-0.8c1.1-0.8,2.2-1.4,3.4-1.9
			c0.5-0.2,1,0,1.3,0.5c0.2,0.5,0,1-0.5,1.3c0,0,0,0,0,0c-1.1,0.5-2.1,1.1-3,1.7C15.5,12.3,15.3,12.4,15.1,12.4z"/>
	</g>
	<g id="Ellipse_28_1_">
		<path id="Path_5703" class="st0" d="M25,33.9c-4.9,0-8.9-4-8.9-8.9s4-8.9,8.9-8.9s8.9,4,8.9,8.9l0,0C33.9,29.9,29.9,33.9,25,33.9z
			 M25,18c-3.9,0-7,3.1-7,7s3.1,7,7,7s7-3.1,7-7C32,21.1,28.9,18,25,18z"/>
	</g>
	<g id="Ellipse_29_1_">
		<path id="Path_5704" class="st0" d="M25,29.3c-2.4,0-4.3-1.9-4.3-4.3c0-2.4,1.9-4.3,4.3-4.3c2.4,0,4.3,1.9,4.3,4.3
			C29.3,27.4,27.4,29.3,25,29.3z M25,22.6c-1.3,0-2.4,1-2.4,2.3s1,2.4,2.3,2.4c1.3,0,2.4-1,2.4-2.3c0,0,0,0,0,0
			C27.3,23.7,26.3,22.6,25,22.6z"/>
	</g>
	<g id="Line_26_1_">
		<path id="Path_5705" class="st0" d="M46.5,26H33c-0.5,0-1-0.4-1-1c0-0.5,0.4-1,1-1h13.5c0.5,0,1,0.4,1,1C47.4,25.5,47,26,46.5,26z
			"/>
	</g>
	<g id="Line_27_1_">
		<path id="Path_5706" class="st0" d="M17,26H3.5c-0.5,0-1-0.4-1-1c0-0.5,0.4-1,1-1H17c0.5,0,1,0.4,1,1C18,25.5,17.6,26,17,26z"/>
	</g>
</g>
</svg>
