<?xml version="1.0" encoding="utf-8"?>
<!-- Generator: Adobe Illustrator 25.2.1, SVG Export Plug-In . SVG Version: 6.00 Build 0)  -->
<svg version="1.1" id="Layer_1" xmlns="http://www.w3.org/2000/svg" xmlns:xlink="http://www.w3.org/1999/xlink" x="0px" y="0px"
	 viewBox="0 0 50 50" style="enable-background:new 0 0 50 50;" xml:space="preserve">
<style type="text/css">
	.st0{fill-rule:evenodd;clip-rule:evenodd;fill:#5F2EEA;}
</style>
<g id="Group_254" transform="translate(0 -53)">
	<path id="Path_5285" class="st0" d="M48.6,58.5H1.4c-0.5,0-1,0.4-1,1c0,0,0,0,0,0v32.4c0,0.5,0.4,1,1,1c0,0,0,0,0,0h16.7v2.8H13
		c-0.5,0-1,0.4-1,0.9s0.4,1,0.9,1c0,0,0.1,0,0.2,0H37c0.5,0,1-0.4,1-0.9c0-0.5-0.4-1-0.9-1c0,0-0.1,0-0.2,0h-5.1v-2.8h16.7
		c0.5,0,1-0.4,1-1l0,0V79.5c0-0.5-0.4-1-0.9-1c-0.5,0-1,0.4-1,0.9c0,0,0,0.1,0,0.2v11.4H2.4V60.4h45.3v11.4c0,0.5,0.5,0.9,1,0.9
		c0.5,0,0.8-0.4,0.9-0.9V59.4C49.5,58.9,49.1,58.5,48.6,58.5z M30,92.8v2.8H20v-2.8H30z"/>
	<path id="Path_5286" class="st0" d="M19.8,79.7c0.2,0,0.3,0,0.5-0.1l10.4-6c0.5-0.3,0.6-0.9,0.4-1.3c-0.1-0.1-0.2-0.3-0.4-0.4
		l-10.4-6c-0.5-0.3-1-0.1-1.3,0.4c-0.1,0.1-0.1,0.3-0.1,0.5v12C18.8,79.3,19.3,79.7,19.8,79.7L19.8,79.7z M20.7,68.3l7.6,4.4
		l-7.6,4.4V68.3z"/>
	<path id="Path_5287" class="st0" d="M12.2,85.5c0,0.5,0.4,1,1,1h0h30.4c0.5,0,0.9-0.5,0.9-1c0-0.5-0.4-0.8-0.9-0.9H13.1
		C12.6,84.5,12.2,84.9,12.2,85.5z"/>
	<path id="Path_5288" class="st0" d="M5.3,82.8v5.3c0,0.5,0.5,0.9,1,0.9c0.5,0,0.8-0.4,0.9-0.9v-5.3c0-0.5-0.5-0.9-1-0.9
		C5.7,82,5.3,82.3,5.3,82.8z"/>
	<path id="Path_5289" class="st0" d="M8.7,82.8v5.3c0,0.5,0.5,0.9,1,0.9c0.5,0,0.8-0.4,0.9-0.9v-5.3c0-0.5-0.5-0.9-1-0.9
		C9.1,82,8.8,82.3,8.7,82.8z"/>
	<path id="Path_5290" class="st0" d="M48.6,74.7c-0.5,0-1,0.4-1,1c0,0.5,0.4,1,1,1c0.5,0,1-0.4,1-1C49.6,75.1,49.1,74.7,48.6,74.7z"
		/>
</g>
</svg>
