<?xml version="1.0" encoding="utf-8"?>
<!-- Generator: Adobe Illustrator 25.2.1, SVG Export Plug-In . SVG Version: 6.00 Build 0)  -->
<svg version="1.1" id="Layer_1" xmlns="http://www.w3.org/2000/svg" xmlns:xlink="http://www.w3.org/1999/xlink" x="0px" y="0px"
	 viewBox="0 0 50 50" style="enable-background:new 0 0 50 50;" xml:space="preserve">
<style type="text/css">
	.st0{fill-rule:evenodd;clip-rule:evenodd;fill:#5F2EEA;}
</style>
<g id="Group_250" transform="translate(-31)">
	<path id="Path_5268" class="st0" d="M76.7,20.3H43.9l31.5-9.1c0.5-0.1,0.8-0.7,0.7-1.2l-1.7-5.7c-0.7-2.3-2.8-3.9-5.2-3.9
		c-0.5,0-1,0.1-1.5,0.2L38.2,9.2c-2.8,0.8-4.5,3.8-3.7,6.6l1.6,5.6v22.9c0,3,2.4,5.3,5.3,5.4h11.6c0.5,0,1-0.4,1-1s-0.4-1-1-1l0,0
		H41.5c-1.9,0-3.4-1.5-3.4-3.4V31.2h37.7v13.1c0,1.9-1.5,3.4-3.4,3.4H60.8c-0.5,0-1,0.4-1,1s0.4,1,1,1h11.6c3,0,5.4-2.4,5.4-5.4
		V21.2C77.7,20.7,77.2,20.3,76.7,20.3C76.7,20.3,76.7,20.3,76.7,20.3z M59.7,29.3l4.1-7.1h5.3l-4.1,7.1H59.7z M52.2,29.3l4.1-7.1
		h5.3l-4.1,7.1H52.2z M44.7,29.3l4.1-7.1h5.3L50,29.3H44.7z M48.2,16.8l-6.8-6.6l5.1-1.5c0,0.1,0.1,0.1,0.1,0.1l6.8,6.6l-5.1,1.5
		C48.3,16.9,48.3,16.8,48.2,16.8L48.2,16.8z M61.1,4.7l6.8,6.6l-5.1,1.5c0-0.1-0.1-0.1-0.1-0.1L55.9,6L61,4.5
		C61.1,4.6,61.1,4.6,61.1,4.7z M53.9,6.8l6.8,6.6l-5.1,1.5c0-0.1-0.1-0.1-0.1-0.1l-6.8-6.6l5.1-1.5C53.8,6.7,53.9,6.7,53.9,6.8z
		 M68.3,2.4c0.3-0.1,0.6-0.1,0.9-0.1c1.5,0,2.9,1,3.3,2.5L74,9.5l-3.9,1.1c0-0.1-0.1-0.1-0.1-0.1l-6.8-6.6L68.3,2.4z M36.7,12.6
		c0.4-0.8,1.2-1.4,2-1.6l0.6-0.2c0,0.1,0.1,0.1,0.1,0.1l6.8,6.6L37.8,20l-1.4-4.8C36.1,14.4,36.2,13.4,36.7,12.6z M38.1,22.2h8.5
		l-4.1,7.1h-4.4L38.1,22.2z M67.3,29.3l4.1-7.1h4.4v7.1H67.3z"/>
	<path id="Path_5269" class="st0" d="M63.6,39.3c0-0.3-0.2-0.7-0.5-0.8l-8.5-4.9c-0.5-0.3-1-0.1-1.3,0.4c-0.1,0.1-0.1,0.3-0.1,0.5
		v9.8c0,0.5,0.4,1,1,1c0.2,0,0.3,0,0.5-0.1l8.5-4.9C63.4,40,63.6,39.7,63.6,39.3z M55.1,42.6v-6.4l5.6,3.2L55.1,42.6z"/>
	<path id="Path_5270" class="st0" d="M56.9,47.7c-0.5,0-1,0.4-1,1c0,0.5,0.4,1,1,1c0.5,0,1-0.4,1-1c0,0,0,0,0,0
		C57.9,48.1,57.4,47.7,56.9,47.7z"/>
</g>
</svg>
