<?xml version="1.0" encoding="utf-8"?>
<!-- Generator: Adobe Illustrator 25.2.1, SVG Export Plug-In . SVG Version: 6.00 Build 0)  -->
<svg version="1.1" id="Group_257" xmlns="http://www.w3.org/2000/svg" xmlns:xlink="http://www.w3.org/1999/xlink" x="0px" y="0px"
	 viewBox="0 0 50 50" style="enable-background:new 0 0 50 50;" xml:space="preserve">
<style type="text/css">
	.st0{fill:#5F2EEA;}
</style>
<g id="Group_256">
	<g id="Group_255">
		<path id="Path_5291" class="st0" d="M23.5,35.6c-0.5,0-1,0.4-1,1c0,0.5,0.4,1,1,1s1-0.4,1-1c0-0.3-0.1-0.5-0.3-0.7
			C24,35.7,23.8,35.6,23.5,35.6z"/>
		<path id="Path_5292" class="st0" d="M42.2,32.7c-0.5,0-1,0.4-1,1c0,0.5,0.4,1,1,1c0.5,0,1-0.4,1-1c0-0.3-0.1-0.5-0.3-0.7
			C42.7,32.8,42.4,32.7,42.2,32.7z"/>
		<path id="Path_5293" class="st0" d="M13.3,28c-0.5,0-1,0.4-1,1c0,0.5,0.4,1,1,1c0.5,0,1-0.4,1-1c0-0.3-0.1-0.5-0.3-0.7
			C13.8,28.1,13.5,28,13.3,28z"/>
		<path id="Path_5294" class="st0" d="M50,10.6c0-0.5-0.4-1-1-1l0,0h-1.5c-0.2-0.7-0.5-1.3-0.8-2l1.1-1.1c0.4-0.4,0.4-1,0-1.4l-3-3
			c-0.4-0.4-1-0.4-1.4,0l-1.1,1.1c-0.6-0.3-1.3-0.6-2-0.8V1c0-0.5-0.4-1-1-1c0,0,0,0,0,0h-4.2c-0.5,0-1,0.4-1,1v1.5
			c-0.7,0.2-1.3,0.5-2,0.8l-1.1-1.1c-0.4-0.4-1-0.4-1.4,0l-3,3c-0.2,0.2-0.3,0.5-0.3,0.9H3.9C1.8,6.1,0,7.8,0,10v26.9
			c0,2.2,1.8,3.9,3.9,3.9h15.5v3.3h-2.3c-1.9,0-3.5,1.6-3.5,3.5V49c0,0.5,0.4,1,1,1h18c0.5,0,1-0.4,1-1l0,0v-1.4
			c0-1.9-1.6-3.5-3.5-3.5h-2.3v-3.3h15.5c2.2,0,3.9-1.8,3.9-3.9v-16l0.7-0.7c0.4-0.4,0.4-1,0-1.4l-1.1-1.1c0.3-0.6,0.6-1.3,0.8-2H49
			c0.5,0,1-0.4,1-1c0,0,0,0,0,0V10.6z M31.5,47.7V48h-16v-0.4c0-0.9,0.7-1.6,1.6-1.6H30C30.8,46.1,31.5,46.8,31.5,47.7z M25.7,44.1
			h-4.3v-3.3h4.3L25.7,44.1z M45.1,36.9c0,1.1-0.9,2-2,2H3.9c-1.1,0-2-0.9-2-2v-2.2h36.3c0.5,0,1-0.4,1-1c0-0.5-0.4-1-1-1H2V30h7.5
			c0.5,0,1-0.4,1-1c0-0.5-0.4-1-1-1H2V10c0-1.1,0.9-2,2-2h23.8c-0.3,0.5-0.5,1.1-0.6,1.6h-1.5c-0.5,0-1,0.4-1,1v4.2c0,0.5,0.4,1,1,1
			h1.5c0.2,0.7,0.5,1.3,0.8,2l-1.1,1.1c-0.4,0.4-0.4,1,0,1.4l3,3c0.4,0.4,1,0.4,1.4,0l1.1-1.1c0.6,0.3,1.3,0.6,2,0.8v1.5
			c0,0.5,0.4,1,1,1h4.2c0.5,0,1-0.4,1-1v-1.5c0.7-0.2,1.3-0.5,2-0.8l1.1,1.1c0.4,0.4,1,0.4,1.4,0l0.3-0.3L45.1,36.9L45.1,36.9z
			 M48,13.8h-1.3c-0.5,0-0.9,0.3-1,0.8c-0.2,1-0.6,1.9-1.2,2.8c-0.2,0.4-0.2,0.9,0.1,1.2l0.9,0.9l-1.6,1.6l-0.9-0.9
			c-0.3-0.3-0.8-0.4-1.1-0.2c0,0-0.1,0-0.1,0.1c-0.9,0.5-1.8,0.9-2.8,1.2c-0.4,0.1-0.8,0.5-0.8,1v1.3h-2.2v-1.3c0-0.5-0.3-0.9-0.8-1
			c-1-0.2-1.9-0.6-2.8-1.2c-0.4-0.2-0.9-0.2-1.2,0.1l-0.9,0.9l-1.6-1.6l0.9-0.9c0.3-0.3,0.4-0.8,0.1-1.2c-0.5-0.9-0.9-1.8-1.2-2.8
			c-0.1-0.4-0.5-0.8-1-0.8h-1.3v-2.2h1.3c0.5,0,0.9-0.3,1-0.8C29,9.8,29.4,8.9,30,8c0.2-0.4,0.2-0.9-0.1-1.2l-0.9-0.9l1.6-1.6
			l0.9,0.9c0.3,0.3,0.8,0.4,1.2,0.1c0.9-0.5,1.8-0.9,2.8-1.2c0.4-0.1,0.8-0.5,0.8-1V2h2.2v1.3c0,0.5,0.3,0.9,0.8,1
			c1,0.2,1.9,0.6,2.8,1.2c0.4,0.2,0.9,0.2,1.2-0.1l0.9-0.9l1.6,1.6l-0.9,0.9c-0.3,0.3-0.4,0.8-0.1,1.2c0.5,0.9,0.9,1.8,1.2,2.8
			c0.1,0.4,0.5,0.8,1,0.8H48C48,11.6,48,13.8,48,13.8z"/>
		<path id="Path_5295" class="st0" d="M37.3,6.6c-3.3,0-6.1,2.7-6.1,6.1s2.7,6.1,6.1,6.1c3.3,0,6.1-2.7,6.1-6.1
			C43.4,9.4,40.6,6.6,37.3,6.6z M37.3,16.8c-2.3,0-4.1-1.8-4.1-4.1s1.8-4.1,4.1-4.1c2.3,0,4.1,1.8,4.1,4.1
			C41.4,15,39.6,16.8,37.3,16.8z"/>
		<path id="Path_5296" class="st0" d="M16,18.3c-0.5,0-1,0.4-1,1c0,0.5,0.4,1,1,1c0.5,0,1-0.4,1-1c0-0.3-0.1-0.5-0.3-0.7
			C16.5,18.4,16.2,18.3,16,18.3z"/>
		<path id="Path_5297" class="st0" d="M23.6,17.6c0.1-0.2,0-0.5-0.1-0.7L21.9,14c-0.3-0.5-0.9-0.6-1.3-0.4l-0.9,0.5
			c-0.3-0.2-0.6-0.4-1-0.6v-1.1c0-0.5-0.4-1-1-1c0,0,0,0,0,0h-3.3c-0.5,0-1,0.4-1,1l0,0v1.1c-0.3,0.2-0.7,0.3-1,0.6l-0.9-0.5
			c-0.5-0.3-1.1-0.1-1.3,0.4l-1.7,2.9c-0.3,0.5-0.1,1.1,0.4,1.3l0.9,0.5c0,0.2,0,0.4,0,0.6c0,0.2,0,0.4,0,0.6l-0.9,0.5
			c-0.5,0.3-0.6,0.9-0.4,1.3l1.6,2.9c0.3,0.5,0.9,0.6,1.3,0.4l0.9-0.5c0.3,0.2,0.6,0.4,1,0.6V26c0,0.5,0.4,1,1,1h3.3
			c0.5,0,1-0.4,1-1l0,0v-1.1c0.3-0.2,0.7-0.3,1-0.6l0.9,0.5c0.5,0.3,1.1,0.1,1.3-0.4l1.6-2.9c0.3-0.5,0.1-1.1-0.4-1.3l-0.9-0.5
			c0-0.2,0-0.4,0-0.6c0-0.2,0-0.4,0-0.6l0.9-0.5C23.4,18,23.5,17.8,23.6,17.6z M20.2,18.4c0.1,0.6,0.1,1.2,0,1.8
			c-0.1,0.4,0.1,0.8,0.5,1l0.7,0.4l-0.7,1.2L20,22.4c-0.4-0.2-0.8-0.2-1.1,0.1c-0.4,0.4-1,0.7-1.5,0.9c-0.4,0.1-0.7,0.5-0.7,0.9v0.8
			h-1.3v-0.8c0-0.4-0.3-0.8-0.7-0.9c-0.6-0.2-1.1-0.5-1.5-0.9c-0.3-0.3-0.8-0.3-1.1-0.1l-0.7,0.4l-0.7-1.2l0.7-0.4
			c0.4-0.2,0.6-0.6,0.5-1c-0.1-0.6-0.1-1.2,0-1.8c0.1-0.4-0.1-0.8-0.5-1l-0.7-0.4l0.7-1.2l0.7,0.4c0.4,0.2,0.8,0.2,1.1-0.1
			c0.4-0.4,1-0.7,1.5-0.9c0.4-0.1,0.7-0.5,0.7-0.9v-0.8h1.3v0.8c0,0.4,0.3,0.8,0.7,0.9c0.6,0.2,1.1,0.5,1.5,0.9
			c0.3,0.3,0.8,0.3,1.1,0.1l0.7-0.4l0.7,1.2l-0.7,0.4C20.3,17.5,20.1,18,20.2,18.4L20.2,18.4z"/>
	</g>
</g>
</svg>
