<?xml version="1.0" encoding="utf-8"?>
<!-- Generator: Adobe Illustrator 25.2.1, SVG Export Plug-In . SVG Version: 6.00 Build 0)  -->
<svg version="1.1" id="Layer_1" xmlns="http://www.w3.org/2000/svg" xmlns:xlink="http://www.w3.org/1999/xlink" x="0px" y="0px"
	 viewBox="0 0 50 50" style="enable-background:new 0 0 50 50;" xml:space="preserve">
<style type="text/css">
	.st0{fill:#5F2EEA;}
</style>
<g id="Group_266" transform="translate(-55 -22.223)">
	<path id="Path_5323" class="st0" d="M87.8,44.7c0.5,0,1-0.4,1-1c0-0.5-0.4-1-1-1c-0.5,0-1,0.4-1,1C86.8,44.3,87.2,44.7,87.8,44.7z"
		/>
	<path id="Path_5324" class="st0" d="M63.3,56.7c3.1,0,5.6-2.4,6-5.4V34.9c1.6,0.2,3,1,4.1,2.2c1.3,1.4,2,3.4,1.8,5.3
		c0,0.5,0.4,1,0.9,1.1c0.2,0,0.5,0,0.6-0.2c2.8-1.9,4.1-5.2,3.2-8.5c-0.6-3.1-2.6-5.3-6.1-6.8c-2.1-0.9-3.8-2.5-4.7-4.6l0,0
		c-0.3-0.5-0.9-0.7-1.3-0.4c-0.3,0.2-0.5,0.5-0.5,0.9v22.3c-2.4-2.2-6.2-2-8.4,0.5c-2.2,2.4-2,6.2,0.5,8.4
		C60.4,56.1,61.8,56.7,63.3,56.7z M69.2,27.2c1.1,1.2,2.4,2.1,3.9,2.7c2.9,1.2,4.4,2.8,4.9,5.3c0.4,1.8,0.1,3.6-0.9,5.1
		c-0.3-1.7-1.1-3.3-2.2-4.5c-1.5-1.6-3.4-2.6-5.6-2.8L69.2,27.2z M63.3,46.7c2.2,0,4,1.8,4,4c0,2.2-1.8,4-4,4c-2.2,0-4-1.8-4-4
		C59.3,48.5,61.1,46.7,63.3,46.7L63.3,46.7z"/>
	<path id="Path_5325" class="st0" d="M102.2,34c-0.3-0.2-0.6-0.2-0.9-0.1l-17.9,5.9c-0.4,0.1-0.7,0.5-0.7,0.9v20.4
		c-2.4-2.2-6.2-2-8.4,0.5c-2.2,2.4-2,6.2,0.5,8.4s6.2,2,8.4-0.5c1-1.1,1.5-2.5,1.5-4V49.8l15.9-5.3v8.6c-2.4-2.2-6.2-2-8.4,0.5
		c-2.2,2.4-2,6.2,0.5,8.4c2.4,2.2,6.2,2,8.4-0.5c1-1.1,1.5-2.5,1.5-4V34.8C102.7,34.5,102.5,34.2,102.2,34z M78.9,69.5
		c-2.2,0-4-1.8-4-4c0-2.2,1.8-4,4-4c2.2,0,4,1.8,4,4l0,0C82.8,67.7,81.1,69.5,78.9,69.5C78.9,69.5,78.9,69.5,78.9,69.5L78.9,69.5z
		 M96.7,61.6c-2.2,0-4-1.8-4-4c0-2.2,1.8-4,4-4c2.2,0,4,1.8,4,4l0,0C100.7,59.8,98.9,61.6,96.7,61.6C96.7,61.6,96.7,61.6,96.7,61.6
		L96.7,61.6z M100.7,42.5l-15.9,5.3v-6.3l15.9-5.3V42.5z"/>
	<path id="Path_5326" class="st0" d="M91.8,43.3l6.2-2.1c0.5-0.2,0.8-0.7,0.6-1.3c-0.2-0.5-0.7-0.8-1.3-0.6l0,0l-6.2,2.1
		c-0.5,0.2-0.8,0.7-0.6,1.3C90.7,43.2,91.3,43.5,91.8,43.3z"/>
</g>
</svg>
