<?xml version="1.0" encoding="utf-8"?>
<!-- Generator: Adobe Illustrator 25.2.1, SVG Export Plug-In . SVG Version: 6.00 Build 0)  -->
<svg version="1.1" id="Layer_1" xmlns="http://www.w3.org/2000/svg" xmlns:xlink="http://www.w3.org/1999/xlink" x="0px" y="0px"
	 viewBox="0 0 50 50" style="enable-background:new 0 0 50 50;" xml:space="preserve">
<style type="text/css">
	.st0{fill:#FFFFFF;}
</style>
<g id="Group_334" transform="translate(0 0)">
	<path id="Path_5392" class="st0" d="M8.3,4.9h6.5c1,0,1.8,0.8,1.8,1.8v4.9H6.6V6.7C6.6,5.7,7.4,4.9,8.3,4.9z"/>
	<path id="Path_5393" class="st0" d="M35.2,4.9h6.5c1,0,1.8,0.8,1.8,1.8v4.9H33.4V6.7C33.4,5.7,34.2,4.9,35.2,4.9
		C35.2,4.9,35.2,4.9,35.2,4.9z"/>
	<path id="Path_5394" class="st0" d="M33.4,26.7c0,4.6-3.8,8.4-8.4,8.4s-8.4-3.8-8.4-8.4V14.9H6.6v11.7c0,10.2,8.3,18.4,18.4,18.4
		l0,0c10.2,0,18.4-8.3,18.4-18.4v0V14.9H33.4V26.7z"/>
</g>
</svg>
