<svg xmlns="http://www.w3.org/2000/svg" width="13.841" height="12.776" viewBox="0 0 13.841 12.776">
  <g id="download-to-storage-drive" transform="translate(0 -18.27)">
    <g id="Group_313" data-name="Group 313" transform="translate(0 18.27)">
      <path id="Path_5366" data-name="Path 5366" d="M13.608,310.866a.77.77,0,0,0-.565-.233H9.183l-1.131,1.131a1.606,1.606,0,0,1-2.262,0l-1.123-1.131H.8a.771.771,0,0,0-.566.233.77.77,0,0,0-.233.566v2.662a.77.77,0,0,0,.233.566.77.77,0,0,0,.566.233H13.042a.795.795,0,0,0,.8-.8v-2.662A.77.77,0,0,0,13.608,310.866Zm-3.119,2.8a.522.522,0,1,1,.158-.374A.512.512,0,0,1,10.489,313.669Zm2.129,0a.522.522,0,1,1,.158-.374A.511.511,0,0,1,12.618,313.669Z" transform="translate(0 -302.115)" fill="#8094ae"/>
      <path id="Path_5367" data-name="Path 5367" d="M94.96,27.162a.522.522,0,0,0,.749,0l3.726-3.726a.48.48,0,0,0,.116-.582.5.5,0,0,0-.491-.324H96.931V18.8a.54.54,0,0,0-.532-.532h-2.13a.54.54,0,0,0-.532.532v3.726H91.608a.5.5,0,0,0-.491.324.48.48,0,0,0,.117.582Z" transform="translate(-88.414 -18.27)" fill="#8094ae"/>
    </g>
  </g>
</svg>
