<svg xmlns="http://www.w3.org/2000/svg" width="13.841" height="14.065" viewBox="0 0 13.841 14.065">
  <g id="Group_506" data-name="Group 506" transform="translate(-60 -42.667)">
    <path id="Path_5402" data-name="Path 5402" d="M132.505,53.212a.564.564,0,0,1-.408-.175l-3.955-4.143a.565.565,0,0,1,.408-.955h2.071V43.2a.534.534,0,0,1,.534-.534h2.7a.534.534,0,0,1,.534.534V47.94h2.071a.565.565,0,0,1,.408.955l-3.955,4.143A.564.564,0,0,1,132.505,53.212Z" transform="translate(-65.585)" fill="#8094ae"/>
    <path id="Path_5403" data-name="Path 5403" d="M73.221,386.013H60.62a.62.62,0,0,1-.62-.62v-.773a.62.62,0,0,1,.62-.62h12.6a.62.62,0,0,1,.62.62v.773A.62.62,0,0,1,73.221,386.013Z" transform="translate(0 -329.281)" fill="#8094ae"/>
  </g>
</svg>
