<svg xmlns="http://www.w3.org/2000/svg" width="13.867" height="13" viewBox="0 0 13.867 13">
  <g id="like_1_" data-name="like (1)" transform="translate(0)">
    <path id="Path_5364" data-name="Path 5364" d="M1.011,16.667H2.456a1.012,1.012,0,0,0,1.011-1.011V9.011A1.012,1.012,0,0,0,2.456,8H1.011A1.012,1.012,0,0,0,0,9.011v6.644A1.012,1.012,0,0,0,1.011,16.667Z" transform="translate(0 -3.811)" fill="#8094ae"/>
    <path id="Path_5365" data-name="Path 5365" d="M10.551.75c-.578,0-.867.289-.867,1.733,0,1.373-1.329,2.478-2.185,3.047v7.158a13.467,13.467,0,0,0,5.651,1.063h.924a2.307,2.307,0,0,0,2.276-1.918L17,8.076a2.31,2.31,0,0,0-2.276-2.7H12a5.579,5.579,0,0,0,.433-2.311A2.122,2.122,0,0,0,10.551.75Z" transform="translate(-3.167 -0.75)" fill="#8094ae"/>
  </g>
</svg>
