<svg id="Group_757" data-name="Group 757" xmlns="http://www.w3.org/2000/svg" width="18.33" height="20.58" viewBox="0 0 18.33 20.58">
  <g id="Rectangle_2435" data-name="Rectangle 2435">
    <g id="Group_758" data-name="Group 758">
      <path id="Path_5467" data-name="Path 5467" d="M18.08,18.92,14.55,14.9A8.486,8.486,0,0,0,9,0H8.48a8.48,8.48,0,0,0,0,16.96H9a8.423,8.423,0,0,0,3.88-.94l3.7,4.22a1.012,1.012,0,0,0,.75.34,1,1,0,0,0,.75-1.66Zm-9.6-3.96A6.48,6.48,0,0,1,8.48,2H9A6.48,6.48,0,0,1,9,14.96Z" fill="#364a63"/>
    </g>
  </g>
</svg>
